<svg xmlns="http://www.w3.org/2000/svg" viewBox="0 0 960 460" font-family="Inter, Helvetica, Arial, sans-serif" role="img" aria-labelledby="title desc">
  <title id="title">ARC-AGI timeline, 2019 to 2026</title>
  <desc id="desc">A timeline of the Abstraction and Reasoning Corpus and the ARC Prize competitions from 2019 to 2026, with key milestones and the rise of the private-evaluation state of the art.</desc>

  <!-- palette: teal #1a6b6b / dark #134f4f / alt-bg #f7f9f9 / text #1a1a1a / secondary #4a5568 / border #e2e8f0 -->
  <rect x="0" y="0" width="960" height="460" fill="#f7f9f9"/>

  <text x="48" y="52" font-size="26" font-weight="700" fill="#1a1a1a">ARC-AGI: 2019 → 2026</text>
  <text x="48" y="78" font-size="14" fill="#4a5568">From a new definition of intelligence to a $2M, three-track competition</text>

  <!-- main axis -->
  <line x1="80" y1="250" x2="912" y2="250" stroke="#1a6b6b" stroke-width="3"/>
  <polygon points="912,250 900,244 900,256" fill="#1a6b6b"/>

  <!-- ticks at x: 2019=110, 2020=240, 2022-23=400, 2024=560, 2025=700, 2026=850 -->
  <g stroke="#1a6b6b" stroke-width="3">
    <line x1="110" y1="244" x2="110" y2="256"/>
    <line x1="240" y1="244" x2="240" y2="256"/>
    <line x1="400" y1="244" x2="400" y2="256"/>
    <line x1="560" y1="244" x2="560" y2="256"/>
    <line x1="700" y1="244" x2="700" y2="256"/>
    <line x1="850" y1="244" x2="850" y2="256"/>
  </g>

  <!-- nodes -->
  <g fill="#1a6b6b">
    <circle cx="110" cy="250" r="7"/>
    <circle cx="240" cy="250" r="7"/>
    <circle cx="400" cy="250" r="7"/>
    <circle cx="560" cy="250" r="7"/>
    <circle cx="700" cy="250" r="7"/>
  </g>
  <circle cx="850" cy="250" r="9" fill="#134f4f" stroke="#f7f9f9" stroke-width="2"/>

  <!-- 2019 (above) -->
  <g>
    <line x1="110" y1="250" x2="110" y2="170" stroke="#e2e8f0" stroke-width="1.5"/>
    <text x="110" y="160" text-anchor="middle" font-size="16" font-weight="700" fill="#1a6b6b">2019</text>
    <text x="110" y="140" text-anchor="middle" font-size="12" fill="#4a5568">"On the Measure</text>
    <text x="110" y="126" text-anchor="middle" font-size="12" fill="#4a5568">of Intelligence";</text>
    <text x="110" y="112" text-anchor="middle" font-size="12" fill="#4a5568">ARC released</text>
  </g>

  <!-- 2020 (below) -->
  <g>
    <line x1="240" y1="250" x2="240" y2="320" stroke="#e2e8f0" stroke-width="1.5"/>
    <text x="240" y="340" text-anchor="middle" font-size="16" font-weight="700" fill="#1a6b6b">2020</text>
    <text x="240" y="360" text-anchor="middle" font-size="12" fill="#4a5568">First Kaggle comp</text>
    <text x="240" y="374" text-anchor="middle" font-size="12" fill="#4a5568">$20K · 914 teams</text>
    <text x="240" y="388" text-anchor="middle" font-size="12" fill="#4a5568">~20% (synthesis)</text>
  </g>

  <!-- 2022-23 (above) -->
  <g>
    <line x1="400" y1="250" x2="400" y2="170" stroke="#e2e8f0" stroke-width="1.5"/>
    <text x="400" y="160" text-anchor="middle" font-size="16" font-weight="700" fill="#1a6b6b">2022–23</text>
    <text x="400" y="140" text-anchor="middle" font-size="12" fill="#4a5568">ARCathon (Lab42)</text>
    <text x="400" y="126" text-anchor="middle" font-size="12" fill="#4a5568">$100K each;</text>
    <text x="400" y="112" text-anchor="middle" font-size="12" fill="#4a5568">TTT emerges</text>
  </g>

  <!-- 2024 (below) -->
  <g>
    <line x1="560" y1="250" x2="560" y2="320" stroke="#e2e8f0" stroke-width="1.5"/>
    <text x="560" y="340" text-anchor="middle" font-size="16" font-weight="700" fill="#1a6b6b">2024</text>
    <text x="560" y="360" text-anchor="middle" font-size="12" fill="#4a5568">ARC Prize 2024 · $1.1M</text>
    <text x="560" y="374" text-anchor="middle" font-size="12" fill="#4a5568">SoTA 33% → 55.5%</text>
    <text x="560" y="388" text-anchor="middle" font-size="12" fill="#4a5568">ARChitects 53.5% (winner)</text>
  </g>

  <!-- 2025 (above) -->
  <g>
    <line x1="700" y1="250" x2="700" y2="170" stroke="#e2e8f0" stroke-width="1.5"/>
    <text x="700" y="160" text-anchor="middle" font-size="16" font-weight="700" fill="#1a6b6b">2025</text>
    <text x="700" y="140" text-anchor="middle" font-size="12" fill="#4a5568">ARC-AGI-2 intro'd;</text>
    <text x="700" y="126" text-anchor="middle" font-size="12" fill="#4a5568">TRM wins</text>
    <text x="700" y="112" text-anchor="middle" font-size="12" fill="#4a5568">Paper Award</text>
  </g>

  <!-- 2026 (below, emphasised) -->
  <g>
    <line x1="850" y1="250" x2="850" y2="320" stroke="#1a6b6b" stroke-width="2"/>
    <text x="850" y="340" text-anchor="middle" font-size="16" font-weight="700" fill="#134f4f">2026</text>
    <text x="850" y="360" text-anchor="middle" font-size="12" fill="#4a5568">~$2M · 3 tracks</text>
    <text x="850" y="374" text-anchor="middle" font-size="12" fill="#4a5568">AGI-2 · AGI-3 · Paper</text>
    <text x="850" y="388" text-anchor="middle" font-size="12" fill="#4a5568">AGI-3: humans 100%, LLMs &lt;1%</text>
  </g>

  <text x="48" y="440" font-size="11" fill="#4a5568">Sources: arcprize.org; ARC Prize 2024/2025 Technical Reports. Verified 2026-06-20. © 2026 Antonio Rodriguez-Moral, CC BY 4.0.</text>
</svg>
